<?xml version="1.0" encoding="UTF-8" standalone="no"?>
<!DOCTYPE svg PUBLIC "-//W3C//DTD SVG 1.1//EN"
 "http://www.w3.org/Graphics/SVG/1.1/DTD/svg11.dtd">
<!-- Generated by graphviz version 2.50.0 (0)
 -->
<!-- Title: Tree Pages: 1 -->
<svg width="513pt" height="310pt"
 viewBox="0.00 0.00 512.50 310.40" xmlns="http://www.w3.org/2000/svg" xmlns:xlink="http://www.w3.org/1999/xlink">
<g id="graph0" class="graph" transform="scale(1 1) rotate(0) translate(4 306.4)">
<title>Tree</title>
<polygon fill="white" stroke="transparent" points="-4,4 -4,-306.4 508.5,-306.4 508.5,4 -4,4"/>
<!-- 0 -->
<g id="node1" class="node">
<title>0</title>
<path fill="#f6d3ba" stroke="black" d="M300.5,-297C300.5,-297 199.5,-297 199.5,-297 193.5,-297 187.5,-291 187.5,-285 187.5,-285 187.5,-241 187.5,-241 187.5,-235 193.5,-229 199.5,-229 199.5,-229 300.5,-229 300.5,-229 306.5,-229 312.5,-235 312.5,-241 312.5,-241 312.5,-285 312.5,-285 312.5,-291 306.5,-297 300.5,-297"/>
<text text-anchor="start" x="221" y="-281.8" font-family="Helvetica,sans-Serif" font-size="14.00">Sex ≤ 0.5</text>
<text text-anchor="start" x="218" y="-266.8" font-family="Helvetica,sans-Serif" font-size="14.00">gini = 0.48</text>
<text text-anchor="start" x="205" y="-251.8" font-family="Helvetica,sans-Serif" font-size="14.00">samples = 668</text>
<text text-anchor="start" x="195.5" y="-236.8" font-family="Helvetica,sans-Serif" font-size="14.00">value = [405, 263]</text>
</g>
<!-- 1 -->
<g id="node2" class="node">
<title>1</title>
<path fill="#7ebfee" stroke="black" d="M235,-177C235,-177 119,-177 119,-177 113,-177 107,-171 107,-165 107,-165 107,-121 107,-121 107,-115 113,-109 119,-109 119,-109 235,-109 235,-109 241,-109 247,-115 247,-121 247,-121 247,-165 247,-165 247,-171 241,-177 235,-177"/>
<text text-anchor="start" x="140" y="-161.8" font-family="Helvetica,sans-Serif" font-size="14.00">Pclass ≤ 2.5</text>
<text text-anchor="start" x="145" y="-146.8" font-family="Helvetica,sans-Serif" font-size="14.00">gini = 0.38</text>
<text text-anchor="start" x="132" y="-131.8" font-family="Helvetica,sans-Serif" font-size="14.00">samples = 241</text>
<text text-anchor="start" x="115" y="-116.8" font-family="Helvetica,sans-Serif" font-size="14.00">value = [62.0, 179.0]</text>
</g>
<!-- 0&#45;&gt;1 -->
<g id="edge1" class="edge">
<title>0&#45;&gt;1</title>
<path fill="none" stroke="black" d="M229.47,-228.82C221.23,-215.49 211.63,-199.98 202.92,-185.9"/>
<polygon fill="black" stroke="black" points="205.87,-184.01 197.63,-177.34 199.91,-187.69 205.87,-184.01"/>
<text text-anchor="middle" x="191.89" y="-197.98" font-family="Helvetica,sans-Serif" font-size="14.00">True</text>
</g>
<!-- 4 -->
<g id="node5" class="node">
<title>4</title>
<path fill="#eba069" stroke="black" d="M370.5,-177C370.5,-177 277.5,-177 277.5,-177 271.5,-177 265.5,-171 265.5,-165 265.5,-165 265.5,-121 265.5,-121 265.5,-115 271.5,-109 277.5,-109 277.5,-109 370.5,-109 370.5,-109 376.5,-109 382.5,-115 382.5,-121 382.5,-121 382.5,-165 382.5,-165 382.5,-171 376.5,-177 370.5,-177"/>
<text text-anchor="start" x="295" y="-161.8" font-family="Helvetica,sans-Serif" font-size="14.00">Age ≤ 3.5</text>
<text text-anchor="start" x="292" y="-146.8" font-family="Helvetica,sans-Serif" font-size="14.00">gini = 0.32</text>
<text text-anchor="start" x="279" y="-131.8" font-family="Helvetica,sans-Serif" font-size="14.00">samples = 427</text>
<text text-anchor="start" x="273.5" y="-116.8" font-family="Helvetica,sans-Serif" font-size="14.00">value = [343, 84]</text>
</g>
<!-- 0&#45;&gt;4 -->
<g id="edge4" class="edge">
<title>0&#45;&gt;4</title>
<path fill="none" stroke="black" d="M270.81,-228.82C279.16,-215.49 288.89,-199.98 297.73,-185.9"/>
<polygon fill="black" stroke="black" points="300.74,-187.67 303.09,-177.34 294.81,-183.96 300.74,-187.67"/>
<text text-anchor="middle" x="308.67" y="-198.01" font-family="Helvetica,sans-Serif" font-size="14.00">False</text>
</g>
<!-- 2 -->
<g id="node3" class="node">
<title>2</title>
<path fill="#46a3e7" stroke="black" d="M98,-57.5C98,-57.5 12,-57.5 12,-57.5 6,-57.5 0,-51.5 0,-45.5 0,-45.5 0,-16.5 0,-16.5 0,-10.5 6,-4.5 12,-4.5 12,-4.5 98,-4.5 98,-4.5 104,-4.5 110,-10.5 110,-16.5 110,-16.5 110,-45.5 110,-45.5 110,-51.5 104,-57.5 98,-57.5"/>
<text text-anchor="start" x="23" y="-42.3" font-family="Helvetica,sans-Serif" font-size="14.00">gini = 0.12</text>
<text text-anchor="start" x="10" y="-27.3" font-family="Helvetica,sans-Serif" font-size="14.00">samples = 130</text>
<text text-anchor="start" x="8" y="-12.3" font-family="Helvetica,sans-Serif" font-size="14.00">value = [8, 122]</text>
</g>
<!-- 1&#45;&gt;2 -->
<g id="edge2" class="edge">
<title>1&#45;&gt;2</title>
<path fill="none" stroke="black" d="M140.4,-109C124.86,-94.98 106.79,-78.69 91.28,-64.71"/>
<polygon fill="black" stroke="black" points="93.21,-61.74 83.44,-57.64 88.52,-66.93 93.21,-61.74"/>
</g>
<!-- 3 -->
<g id="node4" class="node">
<title>3</title>
<path fill="#f5fafe" stroke="black" d="M226,-57.5C226,-57.5 140,-57.5 140,-57.5 134,-57.5 128,-51.5 128,-45.5 128,-45.5 128,-16.5 128,-16.5 128,-10.5 134,-4.5 140,-4.5 140,-4.5 226,-4.5 226,-4.5 232,-4.5 238,-10.5 238,-16.5 238,-16.5 238,-45.5 238,-45.5 238,-51.5 232,-57.5 226,-57.5"/>
<text text-anchor="start" x="155" y="-42.3" font-family="Helvetica,sans-Serif" font-size="14.00">gini = 0.5</text>
<text text-anchor="start" x="139" y="-27.3" font-family="Helvetica,sans-Serif" font-size="14.00">samples = 111</text>
<text text-anchor="start" x="136" y="-12.3" font-family="Helvetica,sans-Serif" font-size="14.00">value = [54, 57]</text>
</g>
<!-- 1&#45;&gt;3 -->
<g id="edge3" class="edge">
<title>1&#45;&gt;3</title>
<path fill="none" stroke="black" d="M178.8,-109C179.51,-96.01 180.32,-81.07 181.05,-67.83"/>
<polygon fill="black" stroke="black" points="184.55,-67.81 181.6,-57.64 177.56,-67.43 184.55,-67.81"/>
</g>
<!-- 5 -->
<g id="node6" class="node">
<title>5</title>
<path fill="#74baed" stroke="black" d="M357,-57.5C357,-57.5 279,-57.5 279,-57.5 273,-57.5 267,-51.5 267,-45.5 267,-45.5 267,-16.5 267,-16.5 267,-10.5 273,-4.5 279,-4.5 279,-4.5 357,-4.5 357,-4.5 363,-4.5 369,-10.5 369,-16.5 369,-16.5 369,-45.5 369,-45.5 369,-51.5 363,-57.5 357,-57.5"/>
<text text-anchor="start" x="286" y="-42.3" font-family="Helvetica,sans-Serif" font-size="14.00">gini = 0.36</text>
<text text-anchor="start" x="277" y="-27.3" font-family="Helvetica,sans-Serif" font-size="14.00">samples = 13</text>
<text text-anchor="start" x="275" y="-12.3" font-family="Helvetica,sans-Serif" font-size="14.00">value = [3, 10]</text>
</g>
<!-- 4&#45;&gt;5 -->
<g id="edge5" class="edge">
<title>4&#45;&gt;5</title>
<path fill="none" stroke="black" d="M322.2,-109C321.49,-96.01 320.68,-81.07 319.95,-67.83"/>
<polygon fill="black" stroke="black" points="323.44,-67.43 319.4,-57.64 316.45,-67.81 323.44,-67.43"/>
</g>
<!-- 6 -->
<g id="node7" class="node">
<title>6</title>
<path fill="#eb9c64" stroke="black" d="M492.5,-57.5C492.5,-57.5 399.5,-57.5 399.5,-57.5 393.5,-57.5 387.5,-51.5 387.5,-45.5 387.5,-45.5 387.5,-16.5 387.5,-16.5 387.5,-10.5 393.5,-4.5 399.5,-4.5 399.5,-4.5 492.5,-4.5 492.5,-4.5 498.5,-4.5 504.5,-10.5 504.5,-16.5 504.5,-16.5 504.5,-45.5 504.5,-45.5 504.5,-51.5 498.5,-57.5 492.5,-57.5"/>
<text text-anchor="start" x="414" y="-42.3" font-family="Helvetica,sans-Serif" font-size="14.00">gini = 0.29</text>
<text text-anchor="start" x="401" y="-27.3" font-family="Helvetica,sans-Serif" font-size="14.00">samples = 414</text>
<text text-anchor="start" x="395.5" y="-12.3" font-family="Helvetica,sans-Serif" font-size="14.00">value = [340, 74]</text>
</g>
<!-- 4&#45;&gt;6 -->
<g id="edge6" class="edge">
<title>4&#45;&gt;6</title>
<path fill="none" stroke="black" d="M360.6,-109C376.14,-94.98 394.21,-78.69 409.72,-64.71"/>
<polygon fill="black" stroke="black" points="412.48,-66.93 417.56,-57.64 407.79,-61.74 412.48,-66.93"/>
</g>
</g>
</svg>
